<svg width="16" height="16" viewBox="0 0 16 16" fill="none" xmlns="http://www.w3.org/2000/svg">
<path d="M0.190964 0.190287C-0.0627521 0.444003 -0.0627526 0.855358 0.190964 1.10907L7.08155 7.99966L0.190287 14.8909C-0.063429 15.1446 -0.063429 15.556 0.190287 15.8097C0.444003 16.0634 0.855358 16.0634 1.10907 15.8097L8.00034 8.91845L14.8916 15.8097C15.1453 16.0634 15.5566 16.0634 15.8104 15.8097C16.0641 15.556 16.0641 15.1446 15.8104 14.8909L8.91913 7.99966L15.8097 1.10911C16.0634 0.855398 16.0634 0.444043 15.8097 0.190327C15.556 -0.063389 15.1446 -0.0633894 14.8909 0.190327L8.00034 7.08087L1.10975 0.190287C0.856035 -0.063429 0.44468 -0.063429 0.190964 0.190287Z" fill="#F0F2F4"/>
</svg>
