<svg width="64" height="36" viewBox="0 0 64 36" fill="none" xmlns="http://www.w3.org/2000/svg">
<rect width="64" height="32" rx="16" fill="url(#paint0_linear)"/>
<path d="M40.6957 22.5789C40.6054 22.4584 40.5158 22.3389 40.4268 22.2203C42.3988 22.5726 44.4342 22.223 46.1794 21.2322C47.9247 20.2415 49.2692 18.6723 49.9795 16.7974C50.6897 14.9226 50.7207 12.8605 50.0671 10.9698C49.4134 9.07907 48.1164 7.47919 46.4016 6.44825C48.2068 5.98553 50.1023 6.02063 51.8858 6.54979C53.6693 7.07895 55.2739 8.08233 56.5285 9.4529C57.783 10.8235 58.6405 12.5098 59.0094 14.3321C59.3784 16.1543 59.2449 18.0441 58.6232 19.7998C58.0016 21.5556 56.9151 23.1114 55.4797 24.3014C54.0442 25.4914 52.3137 26.2709 50.4727 26.5567C48.6316 26.8425 46.7491 26.624 45.026 25.9244C43.3028 25.2248 41.8037 24.0704 40.6884 22.5843L40.6957 22.5789Z" fill="#F0F2F4" stroke="#F0F2F4" stroke-linecap="round" stroke-linejoin="round"/>
<g filter="url(#filter0_d)">
<path d="M27.1767 17.2949L27.9036 18.8444L29.5294 19.0925L28.3531 20.2983L28.6305 22.0008L27.1767 21.1971L25.7225 22.0008L25.9999 20.2983L24.8235 19.0925L26.4494 18.8444L27.1767 17.2949Z" fill="#F0F2F4"/>
<path d="M20.1179 6L20.9902 7.85935L22.9412 8.15709L21.5296 9.60406L21.8625 11.6471L20.1179 10.6826L18.3728 11.6471L18.7058 9.60406L17.2941 8.15709L19.2451 7.85935L20.1179 6Z" fill="#F0F2F4"/>
<path d="M36.5882 7.88281L37.0243 8.81271L38 8.96143L37.2938 9.68517L37.4608 10.7063L36.5882 10.2242L35.7156 10.7063L35.8826 9.68517L35.1765 8.96143L36.1522 8.81271L36.5882 7.88281Z" fill="#F0F2F4"/>
<path d="M30 10.7051L30.4361 11.635L31.4118 11.7837L30.7056 12.5074L30.8726 13.5286L30 13.0465L29.1274 13.5286L29.2944 12.5074L28.5883 11.7837L29.564 11.635L30 10.7051Z" fill="#F0F2F4"/>
<path d="M15.8823 15.4121L16.3184 16.342L17.2941 16.4907L16.588 17.2145L16.7549 18.2356L15.8823 17.7535L15.0098 18.2356L15.1767 17.2145L14.4706 16.4907L15.4463 16.342L15.8823 15.4121Z" fill="#F0F2F4"/>
</g>
<defs>
<filter id="filter0_d" x="4.47058" y="0" width="43.5294" height="36.0008" filterUnits="userSpaceOnUse" color-interpolation-filters="sRGB">
<feFlood flood-opacity="0" result="BackgroundImageFix"/>
<feColorMatrix in="SourceAlpha" type="matrix" values="0 0 0 0 0 0 0 0 0 0 0 0 0 0 0 0 0 0 127 0"/>
<feOffset dy="4"/>
<feGaussianBlur stdDeviation="5"/>
<feColorMatrix type="matrix" values="0 0 0 0 1 0 0 0 0 1 0 0 0 0 1 0 0 0 0.75 0"/>
<feBlend mode="normal" in2="BackgroundImageFix" result="effect1_dropShadow"/>
<feBlend mode="normal" in="SourceGraphic" in2="effect1_dropShadow" result="shape"/>
</filter>
<linearGradient id="paint0_linear" x1="48" y1="27.5" x2="13" y2="4.5" gradientUnits="userSpaceOnUse">
<stop stop-color="#181C87"/>
<stop offset="0.702029" stop-color="#1A1F91"/>
</linearGradient>
</defs>
</svg>
