<svg width="36" height="36" viewBox="0 0 36 36" fill="none" xmlns="http://www.w3.org/2000/svg">
<rect width="36" height="36" rx="12" fill="url(#paint0_linear)"/>
<path d="M23.7559 12.9608L23.7557 12.9607L23.7486 12.9677L13.8746 22.6711L11.4126 19.4887L11.4077 19.4824L11.4023 19.4763C11.2487 19.3023 11.0409 19.189 10.8141 19.17C10.5883 19.151 10.3618 19.2271 10.1759 19.3976L10.0474 19.4946L10.0273 19.5098L10.0107 19.5287C9.70773 19.8721 9.64456 20.4214 9.9505 20.8375L9.95046 20.8375L9.95332 20.8413L12.948 24.7581L13.0328 24.9022L13.045 24.9228L13.0608 24.9408C13.2144 25.1149 13.4222 25.2281 13.6491 25.2472C13.8748 25.2661 14.1013 25.19 14.2872 25.0196L14.4157 24.9225L14.4285 24.9128L14.4399 24.9016L24.9768 14.5819L24.9833 14.5755L24.9893 14.5687C25.2896 14.2283 25.3543 13.6857 25.0575 13.2709L24.9711 13.1241C24.6883 12.6432 24.0772 12.6694 23.7559 12.9608Z" fill="white" stroke="white" stroke-width="0.5"/>
<defs>
<linearGradient id="paint0_linear" x1="30" y1="-7.6741e-07" x2="3.75" y2="36" gradientUnits="userSpaceOnUse">
<stop stop-color="#6E5DFF"/>
<stop offset="1" stop-color="#C679FF"/>
</linearGradient>
</defs>
</svg>
