<svg width="36" height="36" viewBox="0 0 36 36" fill="none" xmlns="http://www.w3.org/2000/svg">
<rect width="36" height="36" rx="12" fill="url(#paint0_linear)"/>
<path d="M17.8905 17.8485C20.1102 17.8485 21.886 16.0727 21.886 13.8529C21.886 11.6332 20.1102 9.85742 17.8905 9.85742C15.6707 9.85742 13.895 11.6332 13.895 13.8529C13.895 16.0727 15.7447 17.8485 17.8905 17.8485Z" fill="white"/>
<path d="M26.176 27.0391C25.4361 23.0436 21.9586 20.084 17.963 20.084C13.9675 20.084 10.4159 22.9696 9.75 27.0391C9.75 27.1871 9.75001 27.3351 9.89799 27.4831C9.97198 27.6311 10.1199 27.7051 10.3419 27.7051H25.8061C25.9541 27.7051 26.102 27.6311 26.25 27.4831C26.102 27.3351 26.176 27.1871 26.176 27.0391Z" fill="white"/>
<defs>
<linearGradient id="paint0_linear" x1="30" y1="-7.6741e-07" x2="3.75" y2="36" gradientUnits="userSpaceOnUse">
<stop stop-color="#397AE0"/>
<stop offset="1" stop-color="#2FC3B0"/>
</linearGradient>
</defs>
</svg>
