<svg width="186" height="147" viewBox="0 0 186 147" fill="none" xmlns="http://www.w3.org/2000/svg">
<g opacity="0.85">
<path d="M130.339 114.073C166.809 92.1539 113.641 71.26 105.476 56.6302C99.6165 46.1148 108.492 22.6827 98.5494 10.1286C88.0979 -3.05081 67.6523 -2.14801 55.4198 5.86989C36.9336 17.9874 24.2104 70.1278 44.9795 87.8656C60.7292 101.315 80.4052 79.8884 97.4042 90.4815C108.071 97.1415 110.47 125.987 130.339 114.073Z" fill="#491BC4"/>
<path opacity="0.9" d="M130.339 114.073C166.809 92.1539 113.641 71.26 105.476 56.6302C99.6165 46.1148 108.492 22.6827 98.5494 10.1286C88.0979 -3.05081 67.6523 -2.14801 55.4198 5.86989C36.9336 17.9874 24.2104 70.1278 44.9795 87.8656C60.7292 101.315 80.4052 79.8884 97.4042 90.4815C108.071 97.1415 110.47 125.987 130.339 114.073Z" fill="white"/>
<path d="M92.9946 146.838C132.809 146.838 165.084 144.963 165.084 142.649C165.084 140.336 132.809 138.461 92.9946 138.461C53.1807 138.461 20.9051 140.336 20.9051 142.649C20.9051 144.963 53.1807 146.838 92.9946 146.838Z" fill="#F5F5F5"/>
<path d="M80.2566 38.9324C80.3718 38.8066 81.5542 37.6041 81.1154 36.8752C80.7436 37.6411 80.0298 38.8029 77.8436 38.9953C78.0871 38.3351 78.213 37.6376 78.2154 36.9344C77.8599 37.7362 77.3229 38.4453 76.6463 39.0064C75.2908 38.9058 73.9525 38.6424 72.6606 38.222C67.1504 38.7252 67.0165 34.4073 66.9719 33.4453C66.8292 34.0889 66.7655 34.7474 66.7823 35.4063C65.5925 33.5267 65.7821 30.674 67.3512 30.1412C67.6375 24.0732 72.0434 23.533 73.1514 23.2925C75.1517 22.8559 78.6429 21.1872 80.3718 24.7725C82.7997 26.0712 83.7181 29.1237 82.6808 33.7783C84.7629 37.112 80.4759 38.8473 80.2566 38.9324Z" fill="#263238"/>
<path d="M72.3184 142.648C75.1962 142.648 75.5755 142.604 77.1928 142.549C78.5759 142.5 78.9068 142.671 80.0223 142.648C80.9518 142.626 80.9146 141.742 80.6283 140.724C80.487 140.214 80.2565 139.13 80.0669 138.305L75.6944 138.76C75.35 139.372 74.8609 139.891 74.2694 140.273C73.6779 140.654 73.0019 140.887 72.2998 140.95C70.7494 141.157 71.1733 142.648 72.3184 142.648Z" fill="#263238"/>
<path d="M69.9612 132.282C71.6641 130.036 72.0954 129.174 73.0137 127.879C73.7982 126.769 73.9507 127.047 74.7873 125.952C75.3375 125.212 74.8282 124.198 74.0436 123.972C73.3079 123.825 72.5873 123.61 71.8909 123.332L69.0205 125.437C69.5448 126.788 69.6043 129.877 68.4256 131.672C67.5742 132.959 69.2734 133.181 69.9612 132.282Z" fill="#263238"/>
<path d="M59.1268 63.6289C59.1268 63.6289 50.8578 87.1535 49.787 95.7634C48.7422 104.185 69.2362 126.081 69.2362 126.081C69.7307 126.451 71.7831 123.913 71.8983 123.247C71.8983 123.247 63.7632 105.413 58.0969 96.0335C70.3665 77.9442 72.4969 65.7379 72.4969 65.7379L59.1268 63.6289Z" fill="#491BC4"/>
<path d="M63.1348 64.2637C63.1348 64.2637 67.7564 87.9437 69.5187 99.3545C71.3778 111.328 76.1592 130.93 75.6945 138.759C76.3674 139.152 78.8437 138.489 80.1561 138.075C80.1561 138.075 83.5582 112.393 77.6911 100.538C81.4872 72.8329 74.4526 66.0508 74.4526 66.0508L63.1348 64.2637Z" fill="#491BC4"/>
<path d="M75.3636 135.334C75.3636 136.037 75.3152 137.262 75.2111 138.198C75.1739 138.535 75.3041 138.849 75.4937 138.905C77.0925 139.356 79.4088 138.698 80.145 138.464C80.2863 138.42 80.3904 138.224 80.4127 137.972L80.6507 135.294C80.6841 134.924 80.5242 134.594 80.3123 134.602L75.6945 134.761C75.5197 134.768 75.371 135.016 75.3636 135.334Z" fill="#263238"/>
<path d="M66.7116 123.567C67.1578 124.17 67.946 125.243 68.5149 126.054C68.7045 126.32 68.9834 126.461 69.1544 126.383C70.4371 125.791 71.9653 124.163 72.4598 123.638C72.5564 123.53 72.5341 123.312 72.404 123.097L70.9986 120.785C70.8089 120.47 70.4669 120.285 70.2921 120.415L66.6373 122.931C66.4885 123.027 66.5183 123.323 66.7116 123.567Z" fill="#263238"/>
<path d="M64.3841 46.0333C64.254 45.8446 64.1796 45.7262 64.0867 45.5782L63.8301 45.1564C63.6665 44.8789 63.5141 44.5977 63.3654 44.3165C63.0679 43.7541 62.7903 43.1856 62.5325 42.6108C62.0171 41.4559 61.5835 40.2666 61.2349 39.0514C60.879 37.8308 60.6156 36.5853 60.4467 35.3255C60.3537 34.6928 60.3017 34.0564 60.2645 33.4163C60.2645 33.0944 60.2348 32.7762 60.2385 32.4543V31.9733C60.2385 31.7661 60.2385 31.5404 60.2719 31.3517C60.3443 30.6552 60.4799 29.9667 60.6772 29.2945C60.852 28.6655 61.049 28.0735 61.2647 27.4926C61.6922 26.3308 62.1756 25.2245 62.6813 24.1367C63.6995 21.9752 64.8442 19.875 66.1093 17.8467C66.2629 17.6054 66.5001 17.4286 66.7761 17.3498C67.052 17.2711 67.3474 17.296 67.6061 17.4197C67.8648 17.5434 68.0689 17.7573 68.1795 18.0209C68.2902 18.2845 68.2997 18.5793 68.2063 18.8494V18.8716C67.4292 21.0398 66.6633 23.2376 65.9569 25.4021C65.6074 26.4899 65.2765 27.574 65.005 28.6396C64.8675 29.1687 64.7411 29.6978 64.6332 30.2084C64.5442 30.6674 64.4907 31.1325 64.4734 31.5996C64.4734 31.6995 64.4734 31.7661 64.4734 31.8512L64.5068 32.2471C64.5254 32.5061 64.5626 32.7688 64.5886 33.0315C64.6667 33.5532 64.7411 34.0749 64.8489 34.5929C65.0585 35.6362 65.3329 36.6655 65.6706 37.675C66.0095 38.6918 66.4029 39.6898 66.8492 40.6646C67.0686 41.1567 67.3028 41.6377 67.5482 42.1076L67.92 42.7995L68.1096 43.1362L68.2807 43.4211L68.3439 43.5247C68.6417 44.0487 68.7254 44.6667 68.5776 45.2504C68.4297 45.8342 68.0617 46.3388 67.5498 46.6597C67.0379 46.9805 66.4216 47.0929 65.8287 46.9735C65.2357 46.8542 64.7118 46.5122 64.3655 46.0185L64.3841 46.0333Z" fill="#B55B52"/>
<path d="M70.2736 16.825C70.2219 17.3671 69.9718 17.8715 69.5708 18.2421L67.7304 19.822C67.6049 19.9322 67.4484 20.0013 67.2821 20.0198C67.1158 20.0384 66.9477 20.0055 66.8009 19.9256L65.7933 19.4076C65.7407 17.9752 66.0622 16.5538 66.7265 15.2821L67.1801 13.5394C67.1882 13.4747 67.2114 13.4127 67.248 13.3587C67.2846 13.3046 67.3335 13.2599 67.3908 13.2281C67.448 13.1964 67.512 13.1786 67.5774 13.1761C67.6429 13.1736 67.7081 13.1865 67.7676 13.2138L70.1732 14.4607C70.2883 14.5324 70.3797 14.6362 70.4359 14.7593C70.4921 14.8823 70.5106 15.0191 70.4892 15.1526L70.2736 16.825Z" fill="#B55B52"/>
<path d="M65.6706 48.9079C71.7608 46.8544 68.857 42.4292 67.2099 38.2593C65.6111 37.0531 60.8891 42.0148 60.8891 42.0148C60.8891 42.0148 59.6882 48.4491 65.6706 48.9079Z" fill="#263238"/>
<path d="M61.1159 45.5223C60.6594 47.8371 60.3219 50.1736 60.1046 52.5227C59.7328 55.5752 59.4762 58.5907 59.1267 63.6227L74.4675 66.0425C74.8393 61.6913 76.1257 56.8702 80.4164 47.6276C80.6589 47.1471 80.7904 46.6189 80.8013 46.0814C80.8122 45.5439 80.7023 45.0107 80.4796 44.521C80.2568 44.0312 79.9269 43.5971 79.5139 43.2506C79.1009 42.904 78.6153 42.6537 78.0926 42.5179C77.494 42.3625 76.8582 42.2108 76.2001 42.0739C73.9082 41.5399 71.581 41.169 69.2362 40.9639C68.4665 40.9158 67.6671 40.8862 66.9012 40.8714C65.5445 40.8584 64.2254 41.3153 63.17 42.1638C62.1146 43.0123 61.3884 44.1996 61.1159 45.5223Z" fill="#263238"/>
<path d="M76.9586 34.2012C75.9956 36.3361 74.6013 40.3025 75.8208 42.023C75.8208 42.023 73.7499 41.3681 68.8011 43.4327C67.7898 41.3644 68.8569 40.9241 68.8569 40.9241C71.493 40.7317 71.8611 38.8965 71.8313 37.1168L76.9586 34.2012Z" fill="#B55B52"/>
<path d="M69.8348 43.0313C71.2886 43.4753 71.3964 45.7804 71.3964 45.7804C71.3964 45.7804 75.3636 43.8305 76.7727 42.2395C76.3648 41.917 75.9739 41.5737 75.6016 41.2109C75.6016 41.2109 70.8387 42.2913 69.8348 43.0313Z" fill="white"/>
<path d="M68.4554 42.5636C68.4554 42.5636 67.1169 42.7079 66.3696 44.4136C66.548 41.1058 68.1617 40.795 68.1617 40.795C68.6032 40.6256 69.0921 40.6256 69.5336 40.795C69.1729 40.9154 68.8666 41.1591 68.6692 41.4829C68.4719 41.8066 68.3961 42.1895 68.4554 42.5636Z" fill="white"/>
<path opacity="0.2" d="M74.8654 35.3867L71.8314 37.1109C71.8455 37.5291 71.8219 37.9476 71.7608 38.3615C72.7461 38.3615 74.304 37.5512 74.6386 36.5855C74.787 36.203 74.8639 35.7967 74.8654 35.3867Z" fill="black"/>
<path d="M79.5835 30.0222C78.3305 33.5187 77.8732 35.0172 75.5345 36.4195C72.0135 38.5285 67.9646 36.4824 68.143 32.7454C68.2992 29.3858 70.3218 24.2354 74.2407 23.6323C78.1223 23.0514 80.8365 26.5294 79.5835 30.0222Z" fill="#B55B52"/>
<path d="M78.6095 25.1206C76.7133 26.2528 76.7765 32.343 79.9294 31.899C82.8518 28.3766 80.6433 24.0439 78.6095 25.1206Z" fill="#263238"/>
<path d="M80.3755 24.7383C78.1856 28.1608 69.9091 25.1971 67.9572 23.5654C69.3626 23.9835 71.731 23.6172 73.4413 23.1954C75.1516 22.7736 79.8921 20.5536 80.3755 24.7383Z" fill="#263238"/>
<path d="M69.3626 22.8962C71.7215 23.4906 74.1996 23.4253 76.5236 22.7075L79.0259 22.504C77.2003 21.3052 72.2478 22.8481 69.3626 22.8962Z" fill="#263238"/>
<path d="M74.8654 29.8982C74.7725 30.1942 74.542 30.3977 74.3486 30.3533C74.1553 30.3089 74.0698 30.0314 74.1627 29.7317C74.2557 29.432 74.4899 29.2285 74.6833 29.2766C74.8766 29.3247 74.9584 29.5985 74.8654 29.8982Z" fill="#263238"/>
<path d="M71.1213 28.8991C71.0283 29.1988 70.7941 29.4023 70.6007 29.3579C70.4074 29.3135 70.3256 29.0323 70.4186 28.7363C70.5115 28.4403 70.742 28.2331 70.9354 28.2775C71.1287 28.3219 71.2105 28.6031 71.1213 28.8991Z" fill="#263238"/>
<path d="M71.0171 28.3134L70.3702 27.9434C70.3702 27.9434 70.5598 28.602 71.0171 28.3134Z" fill="#263238"/>
<path d="M72.0694 29.8242C71.5919 30.4418 71.0386 30.9974 70.4223 31.4781C70.6863 31.9332 71.4299 31.9332 71.4299 31.9332L72.0694 29.8242Z" fill="#A02724"/>
<path d="M72.7796 33.414C72.608 33.4057 72.4375 33.3821 72.2702 33.3437C72.2587 33.3407 72.2479 33.3355 72.2385 33.3282C72.2291 33.3208 72.2214 33.3117 72.2158 33.3012C72.2102 33.2908 72.2069 33.2793 72.206 33.2675C72.2051 33.2557 72.2067 33.2438 72.2107 33.2327C72.2176 33.2097 72.2329 33.1902 72.2535 33.1779C72.2742 33.1656 72.2986 33.1614 72.3222 33.1661C72.7013 33.2562 73.096 33.2604 73.4769 33.1784C73.8579 33.0965 74.2155 32.9304 74.5233 32.6925C74.5407 32.6755 74.5641 32.666 74.5884 32.666C74.6127 32.666 74.6361 32.6755 74.6535 32.6925C74.6618 32.7007 74.6684 32.7105 74.6729 32.7213C74.6774 32.7321 74.6797 32.7437 74.6797 32.7554C74.6797 32.767 74.6774 32.7786 74.6729 32.7894C74.6684 32.8002 74.6618 32.81 74.6535 32.8183C74.1238 33.2395 73.4566 33.4516 72.7796 33.414Z" fill="#263238"/>
<path d="M79.8476 33.4119C79.6016 33.716 79.2976 33.9687 78.953 34.1554C78.6084 34.3421 78.2301 34.4591 77.8399 34.4997C76.8286 34.5848 76.5757 33.5673 77.0628 32.6497C77.5053 31.8283 78.55 30.7997 79.4721 31.1327C80.3942 31.4657 80.4797 32.6238 79.8476 33.4119Z" fill="#B55B52"/>
<path d="M76.3005 27.7084C76.277 27.7053 76.2544 27.6971 76.2345 27.6843C76.2146 27.6715 76.1977 27.6545 76.1852 27.6344C76.0678 27.4443 75.904 27.287 75.7089 27.177C75.5139 27.067 75.294 27.008 75.0698 27.0054C75.0466 27.0059 75.0234 27.0017 75.0018 26.9932C74.9802 26.9847 74.9605 26.972 74.9438 26.9558C74.9272 26.9396 74.914 26.9202 74.905 26.8989C74.896 26.8776 74.8914 26.8546 74.8914 26.8315C74.8941 26.7827 74.9151 26.7366 74.9502 26.7024C74.9852 26.6682 75.0319 26.6483 75.081 26.6465C75.3619 26.6481 75.6378 26.7206 75.8829 26.8571C76.128 26.9936 76.3344 27.1898 76.4827 27.4272C76.5065 27.4692 76.5132 27.5187 76.5014 27.5655C76.4897 27.6123 76.4603 27.6528 76.4195 27.6788C76.3841 27.7012 76.3423 27.7116 76.3005 27.7084Z" fill="#263238"/>
<path d="M70.3665 26.9366C70.3441 26.9367 70.322 26.9322 70.3015 26.9233C70.281 26.9143 70.2626 26.9012 70.2475 26.8848C70.2137 26.8508 70.1947 26.805 70.1947 26.7571C70.1947 26.7093 70.2137 26.6635 70.2475 26.6295C70.4552 26.4219 70.7081 26.2646 70.9866 26.1697C71.2651 26.0747 71.5617 26.0447 71.8537 26.0819C71.8764 26.0866 71.8979 26.0959 71.9169 26.1093C71.9358 26.1227 71.9517 26.1398 71.9636 26.1597C71.9755 26.1795 71.9831 26.2016 71.9859 26.2245C71.9888 26.2474 71.9868 26.2707 71.9801 26.2928C71.967 26.3396 71.937 26.3798 71.8958 26.4058C71.8545 26.4318 71.8051 26.4416 71.757 26.4334C71.5254 26.4071 71.2908 26.4337 71.0711 26.5113C70.8514 26.5889 70.6524 26.7154 70.4892 26.8811C70.4558 26.9129 70.4125 26.9324 70.3665 26.9366Z" fill="#263238"/>
<path d="M74.7761 29.3134L74.1292 28.9434C74.1292 28.9434 74.3076 29.5835 74.7761 29.3134Z" fill="#263238"/>
<path d="M70.3554 65.2641L71.1213 64.402C71.2638 64.2416 71.4427 64.1173 71.6432 64.0394C71.8436 63.9616 72.0599 63.9324 72.2739 63.9544L74.3003 64.169C74.6992 64.2095 75.0824 64.3449 75.4176 64.5639C75.7528 64.7828 76.0302 65.0789 76.2262 65.4269L76.4753 65.8636C75.3004 67.3843 72.906 68.1649 72.906 68.1649L72.2479 68.4647C72.1156 68.5274 71.9721 68.5636 71.8258 68.5711C71.6794 68.5787 71.533 68.5575 71.3949 68.5087C71.2567 68.4599 71.1296 68.3845 71.0208 68.2868C70.912 68.1891 70.8236 68.071 70.7607 67.9393L70.1472 66.6516C70.0443 66.4249 70.0092 66.1735 70.0461 65.9274C70.0831 65.6814 70.1904 65.4511 70.3554 65.2641Z" fill="#B55B52"/>
<path d="M81.8405 47.3054C81.9669 47.6014 82.0635 47.8419 82.1676 48.1046C82.2718 48.3673 82.3573 48.6226 82.4502 48.8816C82.6324 49.3996 82.822 49.9176 82.967 50.4393C83.2831 51.4827 83.5582 52.5446 83.7813 53.6213C84.0109 54.7088 84.1797 55.8082 84.2869 56.9143C84.3964 58.0505 84.4238 59.193 84.3687 60.3331V60.4515C84.3629 60.5616 84.3455 60.6707 84.3167 60.7771C84.1249 61.4606 83.7819 62.0927 83.3128 62.6271C82.9451 63.0513 82.531 63.4335 82.0784 63.7667C81.2981 64.3316 80.4562 64.807 79.5687 65.1838C78.7468 65.5408 77.9023 65.8436 77.0404 66.0903C76.1863 66.34 75.3169 66.5353 74.4378 66.6749C74.1625 66.7209 73.8797 66.6678 73.6402 66.5252C73.4006 66.3826 73.2199 66.1598 73.1304 65.8966C73.0409 65.6335 73.0485 65.3472 73.1518 65.0892C73.2551 64.8311 73.4474 64.6181 73.6942 64.4882L73.7462 64.4586C74.4341 64.0886 75.1702 63.7186 75.8581 63.319C76.5459 62.9194 77.2263 62.5198 77.8547 62.0906C78.45 61.7001 79.0076 61.2554 79.5204 60.7623C79.7188 60.5716 79.8936 60.358 80.0409 60.1259C80.1525 59.9372 80.1822 59.804 80.1599 59.7892L80.1041 60.2332C80.0579 59.3025 79.9611 58.3749 79.8141 57.4545C79.6505 56.5147 79.4423 55.5749 79.2192 54.6314C78.9961 53.6879 78.7098 52.7481 78.4161 51.812C78.2711 51.3458 78.1187 50.8796 77.9551 50.4171L77.7097 49.7326L77.4754 49.0851L77.442 48.9963C77.2167 48.4159 77.2323 47.7701 77.4854 47.2011C77.7385 46.6322 78.2084 46.1865 78.7916 45.9623C79.3749 45.7381 80.0238 45.7536 80.5956 46.0055C81.1673 46.2574 81.6151 46.725 81.8405 47.3054Z" fill="#B55B52"/>
<path d="M77.8174 42.457C80.3383 42.8936 81.3459 44.307 83.3164 49.3945C82.3423 51.263 77.9178 52.9835 77.9178 52.9835C77.9178 52.9835 75.6609 45.7833 77.8174 42.457Z" fill="#263238"/>
<path d="M133.481 136.089L137.031 135.12L135.091 126.832L131.54 127.801L133.481 136.089Z" fill="#FF8B7B"/>
<path d="M136.544 133.646L132.648 134.642C132.578 134.659 132.516 134.7 132.474 134.759C132.432 134.817 132.412 134.888 132.417 134.96L132.685 138.26C132.692 138.342 132.717 138.421 132.758 138.492C132.799 138.563 132.855 138.624 132.922 138.672C132.99 138.719 133.066 138.751 133.147 138.765C133.228 138.78 133.312 138.777 133.391 138.756C134.789 138.386 136.797 137.772 138.563 137.32C140.63 136.791 140.445 136.924 142.865 136.307C144.33 135.937 144.282 134.371 143.627 134.397C140.653 134.508 140.355 134.549 137.489 133.702C137.185 133.599 136.858 133.58 136.544 133.646Z" fill="#263238"/>
<path opacity="0.2" d="M135.091 126.832L136.091 131.106L132.54 132.075L131.54 127.801L135.091 126.832Z" fill="black"/>
<path d="M137.24 133.812C137.223 133.811 137.208 133.805 137.195 133.795C137.183 133.785 137.174 133.771 137.169 133.756C137.163 133.739 137.162 133.721 137.166 133.704C137.171 133.687 137.181 133.671 137.195 133.66C137.34 133.534 138.626 132.431 139.11 132.55C139.155 132.562 139.197 132.587 139.23 132.62C139.262 132.654 139.285 132.696 139.296 132.742C139.32 132.818 139.326 132.899 139.314 132.978C139.302 133.057 139.271 133.132 139.225 133.197C138.902 133.645 137.849 133.767 137.251 133.797L137.24 133.812ZM139.024 132.727C138.738 132.705 138.02 133.201 137.507 133.619C138.325 133.549 138.905 133.364 139.084 133.112C139.115 133.069 139.135 133.02 139.143 132.968C139.152 132.916 139.148 132.863 139.132 132.813C139.128 132.794 139.119 132.777 139.106 132.763C139.093 132.75 139.076 132.74 139.058 132.735L139.024 132.727Z" fill="#491BC4"/>
<path d="M137.24 133.812C137.227 133.805 137.216 133.795 137.207 133.783C137.199 133.771 137.193 133.757 137.191 133.742C137.191 133.701 137.083 132.706 137.459 132.214C137.564 132.072 137.722 131.977 137.898 131.951C138.136 131.914 138.229 132.014 138.269 132.107C138.418 132.477 137.727 133.494 137.333 133.798C137.322 133.812 137.306 133.821 137.289 133.824C137.272 133.827 137.254 133.823 137.24 133.812ZM137.983 132.114H137.894C137.764 132.135 137.647 132.207 137.57 132.314C137.37 132.691 137.286 133.118 137.329 133.542C137.701 133.172 138.169 132.403 138.072 132.17C138.084 132.158 138.072 132.121 137.983 132.114Z" fill="#491BC4"/>
<path d="M121.36 94.5053C113.336 76.9858 107.584 69.8263 107.454 60.3839L120.237 58.0566C120.237 58.0566 130.179 82.0733 131.228 93.0623C132.317 104.488 136.63 128.449 136.63 128.449L130.8 129.559C130.8 129.559 121.646 107.444 121.36 94.5053Z" fill="#263238"/>
<path opacity="0.2" d="M108.663 67.5785C110.131 72.2812 112.857 77.254 116.392 84.2285C115.768 76.0478 113.117 66.5092 108.663 67.5785Z" fill="black"/>
<path d="M137.147 126.75L137.288 129.321L130.982 131.012L130.146 128.755L137.147 126.75Z" fill="#263238"/>
<path d="M102.676 131.075L102.386 139.585L106.476 139.526L106.766 131.016L102.676 131.075Z" fill="#FF8B7B"/>
<path d="M106.38 138.415L102.36 138.478C102.29 138.478 102.222 138.504 102.17 138.552C102.118 138.599 102.085 138.663 102.078 138.733L101.728 142.007C101.722 142.09 101.732 142.173 101.76 142.251C101.787 142.329 101.83 142.401 101.887 142.461C101.944 142.522 102.012 142.57 102.089 142.603C102.165 142.636 102.248 142.652 102.331 142.651C103.781 142.603 104.234 142.485 106.049 142.459C108.179 142.426 107.198 142.511 109.696 142.459C111.206 142.433 111.447 140.912 110.812 140.775C108.763 140.35 108.209 139.54 107.305 138.674C107.041 138.474 106.71 138.382 106.38 138.415Z" fill="#263238"/>
<path opacity="0.2" d="M102.676 131.073L102.524 135.461L106.618 135.402L106.766 131.018L102.676 131.073Z" fill="black"/>
<path d="M105.636 138.695C105.62 138.696 105.604 138.692 105.59 138.684C105.576 138.676 105.565 138.664 105.558 138.65C105.547 138.636 105.542 138.618 105.542 138.6C105.542 138.582 105.547 138.565 105.558 138.55C105.684 138.41 106.796 137.185 107.305 137.259C107.353 137.265 107.398 137.283 107.437 137.311C107.475 137.34 107.506 137.378 107.525 137.422C107.562 137.491 107.581 137.569 107.581 137.648C107.581 137.726 107.562 137.804 107.525 137.873C107.276 138.351 106.235 138.595 105.64 138.695H105.636ZM107.257 137.429C106.963 137.429 106.324 138.01 105.878 138.476C106.684 138.31 107.238 138.062 107.365 137.796C107.39 137.749 107.403 137.698 107.403 137.646C107.403 137.593 107.39 137.542 107.365 137.496C107.358 137.478 107.347 137.462 107.332 137.451C107.316 137.439 107.298 137.431 107.279 137.429H107.257Z" fill="#491BC4"/>
<path d="M105.636 138.695C105.621 138.691 105.607 138.683 105.596 138.672C105.585 138.661 105.577 138.647 105.573 138.632C105.573 138.591 105.298 137.633 105.599 137.111C105.639 137.034 105.696 136.966 105.764 136.912C105.833 136.858 105.912 136.819 105.997 136.797C106.231 136.734 106.339 136.823 106.387 136.908C106.599 137.278 106.064 138.325 105.718 138.669C105.709 138.681 105.696 138.69 105.681 138.695C105.666 138.699 105.651 138.699 105.636 138.695ZM106.108 136.952C106.079 136.948 106.049 136.948 106.019 136.952C105.957 136.967 105.899 136.996 105.849 137.035C105.799 137.075 105.758 137.125 105.729 137.181C105.586 137.576 105.569 138.005 105.681 138.41C106.008 137.995 106.342 137.2 106.212 136.982C106.22 136.982 106.201 136.948 106.123 136.952H106.108Z" fill="#491BC4"/>
<path d="M102.728 97.3832C101.568 84.263 98.3449 71.4055 99.4194 61.7337L112.804 59.5137C112.804 59.5137 114.73 86.631 113.262 97.8087C111.737 109.43 107.77 132.777 107.77 132.777L101.821 132.859C101.821 132.859 101.152 110.222 102.728 97.3832Z" fill="#263238"/>
<path d="M108.618 131.451L108.231 133.982L101.565 134.1L101.189 131.706L108.618 131.451Z" fill="#263238"/>
<path d="M111.273 24.902C112.388 25.2424 113.604 25.6013 114.775 25.9343C115.946 26.2673 117.136 26.5818 118.307 26.8778C119.478 27.1738 120.653 27.4254 121.795 27.6178C122.364 27.7177 122.929 27.788 123.472 27.8509C123.965 27.9072 124.462 27.9295 124.959 27.9175L123.791 28.3393C123.697 28.4107 123.625 28.5086 123.587 28.6205C123.587 28.6723 123.617 28.6205 123.646 28.5132C123.71 28.1186 123.71 27.7164 123.646 27.3218C123.485 26.2133 123.222 25.122 122.858 24.0621C122.486 22.9299 122.059 21.7866 121.601 20.647C121.144 19.5074 120.638 18.3493 120.155 17.2356L120.136 17.1949C120.004 16.8862 119.989 16.5404 120.094 16.2214C120.198 15.9025 120.415 15.6319 120.704 15.4599C120.994 15.2879 121.336 15.2261 121.668 15.2859C121.999 15.3457 122.298 15.5231 122.509 15.7852C123.323 16.8214 124.084 17.8983 124.788 19.0116C125.505 20.1334 126.16 21.2933 126.751 22.4859C127.048 23.0927 127.324 23.7217 127.584 24.3766C127.857 25.0557 128.079 25.7545 128.246 26.4671C128.458 27.3131 128.54 28.1865 128.487 29.0571C128.443 29.6505 128.295 30.2316 128.049 30.7739C127.733 31.4591 127.242 32.0498 126.625 32.487C126.307 32.7103 125.939 32.8526 125.554 32.9014H125.453C123.991 33.0569 122.515 33.0445 121.055 32.8644C119.69 32.7201 118.37 32.4944 117.073 32.2317C115.775 31.969 114.504 31.6582 113.239 31.3178C111.975 30.9774 110.752 30.6037 109.469 30.1523C108.845 29.8661 108.349 29.3613 108.075 28.7341C107.801 28.1069 107.769 27.4013 107.984 26.7519C108.2 26.1026 108.649 25.5551 109.244 25.2139C109.84 24.8726 110.541 24.7616 111.213 24.902H111.273Z" fill="#FF8B7B"/>
<path d="M120.802 18.1255L117.854 15.591L121.709 13.334C121.709 13.334 124.401 15.924 123.003 17.552L120.802 18.1255Z" fill="#FF8B7B"/>
<path d="M117.259 12.7813L118.962 11.7157C119.171 11.5831 119.42 11.5269 119.666 11.5566C119.912 11.5863 120.14 11.7 120.311 11.8785L121.709 13.3326L117.854 15.5896L116.95 14.2946C116.868 14.1759 116.811 14.0419 116.782 13.9007C116.753 13.7595 116.753 13.6139 116.782 13.4727C116.81 13.3315 116.867 13.1975 116.949 13.0787C117.031 12.9599 117.137 12.8587 117.259 12.7813Z" fill="#FF8B7B"/>
<path d="M108.867 23.7388C112.474 23.1986 118.352 26.5397 118.352 26.5397L117.065 34.4984C117.065 34.4984 114.333 34.2912 110.745 32.4893C109.655 31.9343 104.602 24.3826 108.867 23.7388Z" fill="#491BC4"/>
<path d="M109.283 23.6953C105.305 24.0653 99.215 25.4713 95.2032 27.0845C94.1613 27.4984 93.2791 28.232 92.6847 29.1788C92.0903 30.1256 91.8147 31.2363 91.8978 32.3496C92.3068 37.6554 95.3333 46.1247 99.1852 61.9903C101.186 62.401 106.874 61.7609 111.366 60.958C111.853 60.8729 112.935 59.5964 112.935 59.5964C112.935 59.5964 114.121 60.4178 114.738 60.2772C117.712 59.6038 120.029 58.8342 120.519 58.1904C119.003 54.5866 117.723 44.0083 116.53 37.6776C116.24 35.1653 115.478 30.5551 114.229 28.0058C113.046 25.5934 111.957 23.4215 109.283 23.6953Z" fill="#491BC4"/>
<path d="M99.5124 18.7422C99.9883 21.4543 100.416 24.6363 99.0402 26.6972C100.301 28.2771 103.03 29.3797 105.688 29.8237C107.194 27.7147 106.833 25.8499 105.997 24.8213C104.387 23.8667 104.487 22.2091 104.454 21.0658L99.5124 18.7422Z" fill="#FF8B7B"/>
<path d="M105.688 29.8229C105.99 29.3421 106.166 28.794 106.201 28.2282C106.201 27.4031 107.688 27.8323 107.688 27.8323C107.204 28.6552 106.515 29.3405 105.688 29.8229Z" fill="#263238"/>
<path d="M105.688 29.8244C105.582 29.5365 105.39 29.2877 105.139 29.1112C104.887 28.9347 104.587 28.8388 104.279 28.8364C103.552 28.7992 102.827 28.9257 102.156 29.2064C102.156 29.2064 104.272 29.9761 105.688 29.8244Z" fill="#263238"/>
<path opacity="0.2" d="M100.691 19.7682C100.658 19.598 100.631 19.4241 100.605 19.2539L104.454 21.0706C104.416 21.8648 104.522 22.6593 104.766 23.4164C102.978 22.8947 101.014 21.4036 100.691 19.7682Z" fill="black"/>
<path d="M104.093 8.37501C106.324 8.00501 107.882 10.595 105.952 14.2617C104.628 13.6327 103.532 11.52 103.532 11.52L104.093 8.37501Z" fill="#E0E0E0"/>
<path d="M97.3336 15.2829C98.8654 18.5833 99.5942 20.5961 101.989 21.6506C105.591 23.2379 109.172 20.0189 108.659 16.3189C108.194 12.9889 105.766 8.14928 101.918 8.12708C101.066 8.12111 100.226 8.33051 99.4774 8.73568C98.7287 9.14084 98.0957 9.72849 97.6376 10.4436C97.1795 11.1587 96.9112 11.9778 96.8581 12.8242C96.8049 13.6706 96.9685 14.5166 97.3336 15.2829Z" fill="#FF8B7B"/>
<path d="M107.402 17.0117C107.402 17.0117 106.261 17.0117 103.268 17.6925C103.881 18.5176 104.755 19.1059 106.279 18.7396C106.474 18.7135 106.661 18.6458 106.827 18.5411C106.992 18.4363 107.134 18.2971 107.24 18.1329C107.347 17.9687 107.417 17.7835 107.445 17.5899C107.473 17.3964 107.458 17.1991 107.402 17.0117Z" fill="#263238"/>
<path d="M105.361 18.1902C105.952 18.0211 106.581 18.0405 107.16 18.2457C106.931 18.5021 106.622 18.6753 106.283 18.7378C105.694 18.909 105.065 18.8895 104.487 18.6823C104.714 18.4248 105.022 18.2514 105.361 18.1902Z" fill="#FF5652"/>
<path d="M107.257 17.0137C107.262 17.129 107.232 17.2431 107.172 17.3418C107.112 17.4405 107.024 17.5194 106.919 17.5687C106.025 17.7701 105.116 17.8939 104.201 17.9387C104.054 17.9589 103.903 17.9432 103.764 17.8929C103.624 17.8426 103.498 17.7593 103.398 17.6501C104.666 17.3381 105.956 17.1253 107.257 17.0137Z" fill="white"/>
<path opacity="0.2" d="M103.033 17.1934C103.033 17.1934 102.186 17.3081 102.491 17.9334C102.517 17.6263 103.033 17.1934 103.033 17.1934Z" fill="black"/>
<path d="M99.2484 17.5014L100.762 17.2239C100.762 17.2239 99.7168 14.3083 98.4601 13.5239C99.2037 12.8098 100.319 11.3594 100.669 10.353C100.976 9.52679 101.03 8.62826 100.822 7.77172C100.615 6.91518 100.157 6.13935 99.5049 5.54297C99.3597 6.30523 99.0467 7.02603 98.5884 7.65361C98.13 8.28119 97.5377 8.79996 96.8539 9.17267C95.3927 9.96077 93.8348 11.9366 95.6716 12.7173C93.6936 13.8976 94.6937 16.3914 99.2484 17.5014Z" fill="#E0E0E0"/>
<path d="M100.185 11.172C103.16 11.246 105.216 8.21203 102.639 4.55273C102.308 6.62473 99.4343 7.88273 99.4343 7.88273L100.185 11.172Z" fill="#E0E0E0"/>
<path d="M102.818 9.98153C104.733 10.4403 106.242 8.27953 104.807 4.99023C104.465 6.61453 102.539 7.21023 102.539 7.21023L102.818 9.98153Z" fill="#E0E0E0"/>
<path opacity="0.2" d="M101.806 14.5435C101.284 14.4587 100.749 14.5838 100.319 14.8913C100.833 14.8717 101.338 14.7536 101.806 14.5435Z" fill="black"/>
<path opacity="0.2" d="M101.866 14.8828C101.628 14.8947 101.395 14.9581 101.183 15.0687C100.972 15.1792 100.788 15.3342 100.643 15.5229C101.092 15.3987 101.509 15.1804 101.866 14.8828Z" fill="black"/>
<path opacity="0.2" d="M106.554 12.6913C106.554 12.6913 106.83 12.1807 107.146 12.2436C106.995 12.4458 106.79 12.6012 106.554 12.6913Z" fill="black"/>
<path opacity="0.2" d="M106.621 12.9324C106.621 12.9324 106.915 12.5624 107.194 12.7918C107.029 12.9117 106.823 12.9622 106.621 12.9324Z" fill="black"/>
<path d="M97.0175 18.2852C97.2715 18.6575 97.5971 18.9761 97.9756 19.2225C98.354 19.4689 98.7777 19.6383 99.2223 19.7208C100.419 19.9391 100.921 18.8476 100.505 17.7783C100.133 16.8163 99.055 15.5583 97.9024 15.8099C96.7498 16.0615 96.3965 17.3528 97.0175 18.2852Z" fill="#FF8B7B"/>
<path d="M102.36 14.5427C102.468 14.8165 102.702 14.983 102.885 14.9127C103.067 14.8424 103.123 14.5427 103.015 14.2837C102.907 14.0247 102.673 13.8434 102.491 13.9137C102.308 13.984 102.253 14.2615 102.36 14.5427Z" fill="#263238"/>
<path d="M105.807 13.1735C105.915 13.4473 106.149 13.6138 106.331 13.5435C106.513 13.4732 106.569 13.1735 106.461 12.9145C106.354 12.6555 106.119 12.4742 105.941 12.5445C105.762 12.6148 105.699 12.896 105.807 13.1735Z" fill="#263238"/>
<path d="M104.669 13.6367C104.669 13.6367 105.971 14.928 106.978 15.3831C106.696 16.0417 105.788 16.2008 105.788 16.2008L104.669 13.6367Z" fill="#FF5652"/>
<path d="M100.977 13.1798C100.948 13.1892 100.917 13.1892 100.888 13.1798C100.866 13.1739 100.845 13.1636 100.827 13.1494C100.809 13.1353 100.794 13.1177 100.783 13.0977C100.772 13.0777 100.765 13.0556 100.762 13.0328C100.76 13.0101 100.762 12.9871 100.769 12.9652C100.837 12.6969 100.969 12.4488 101.154 12.2416C101.338 12.0343 101.569 11.8739 101.829 11.7738C101.85 11.7669 101.873 11.7644 101.895 11.7662C101.918 11.7681 101.94 11.7743 101.96 11.7847C101.98 11.795 101.998 11.8091 102.012 11.8263C102.027 11.8435 102.038 11.8634 102.044 11.8848C102.058 11.9285 102.055 11.9759 102.034 12.0168C102.013 12.0577 101.977 12.0887 101.933 12.1031C101.729 12.1871 101.548 12.3175 101.404 12.484C101.26 12.6504 101.157 12.8482 101.104 13.0614C101.094 13.0901 101.078 13.1159 101.056 13.1366C101.033 13.1573 101.007 13.1721 100.977 13.1798Z" fill="#263238"/>
<path d="M106.328 11.0863C106.302 11.099 106.273 11.1056 106.244 11.1056C106.215 11.1056 106.186 11.099 106.16 11.0863C105.971 10.9759 105.758 10.9126 105.54 10.9016C105.321 10.8907 105.103 10.9324 104.904 11.0234C104.863 11.0445 104.816 11.049 104.772 11.0358C104.728 11.0227 104.691 10.993 104.669 10.9531C104.648 10.9122 104.643 10.8647 104.656 10.8205C104.67 10.7763 104.7 10.7389 104.74 10.7163C104.99 10.5988 105.265 10.5431 105.542 10.5541C105.818 10.565 106.088 10.6423 106.328 10.7792C106.348 10.7897 106.366 10.8041 106.38 10.8216C106.395 10.839 106.406 10.8592 106.412 10.8809C106.419 10.9027 106.421 10.9255 106.419 10.948C106.416 10.9706 106.409 10.9924 106.398 11.0123C106.381 11.042 106.356 11.0673 106.328 11.0863Z" fill="#263238"/>
<path d="M96.9321 32.8413C96.5305 33.9994 96.0843 35.1685 95.6679 36.334L94.3815 39.8232L93.0987 43.3049C92.686 44.4667 92.2622 45.6211 91.8643 46.7718L91.8457 45.2918C92.2338 46.5354 92.7199 47.7466 93.2995 48.914C93.8944 50.1646 94.5339 51.4301 95.2032 52.6881C95.8724 53.9461 96.5528 55.2078 97.2407 56.4695L99.3153 60.2657C99.4822 60.565 99.5317 60.9153 99.4542 61.2488C99.3766 61.5824 99.1776 61.8755 98.8956 62.0715C98.6135 62.2675 98.2685 62.3525 97.9271 62.3101C97.5857 62.2677 97.2723 62.1009 97.0473 61.8419C96.062 60.7319 95.1437 59.5886 94.2365 58.4268C93.3292 57.265 92.4555 56.0773 91.6041 54.8674C90.7526 53.6575 89.9309 52.4106 89.1613 51.1045C88.3217 49.7486 87.6133 48.3164 87.0457 46.8272C86.8956 46.4153 86.8736 45.9679 86.9825 45.5434L87.0308 45.3583C87.3469 44.1114 87.6741 42.8793 88.0384 41.6583C88.4028 40.4373 88.7821 39.2275 89.1539 38.025C89.5257 36.8225 89.9495 35.6237 90.3734 34.436C90.7972 33.2483 91.2248 32.0643 91.7045 30.8803C91.9628 30.1894 92.4864 29.629 93.1599 29.3223C93.8335 29.0156 94.6019 28.9877 95.2961 29.2449C95.9903 29.502 96.5535 30.023 96.8617 30.6932C97.1699 31.3635 97.1978 32.1282 96.9395 32.8191L96.9321 32.8413Z" fill="#FF8B7B"/>
<path d="M94.9874 27.1823C90.9905 28.6031 88.8043 36.3731 88.8043 36.3731L95.1733 42.0193C95.1733 42.0193 97.7983 40.1471 98.3337 36.1807C98.7426 33.1208 99.0475 25.7245 94.9874 27.1823Z" fill="#491BC4"/>
<path d="M98.092 58.5215L101.371 60.2864L98.2296 63.4536C98.2296 63.4536 95.4522 61.4963 96.259 59.8609L98.092 58.5215Z" fill="#FF8B7B"/>
<path d="M102.509 63.9704L101.219 64.8954C100.97 65.0737 100.665 65.1582 100.36 65.1338C100.054 65.1094 99.7668 64.9777 99.5495 64.7622L98.2296 63.4524L101.371 60.2852L102.788 62.1537C102.891 62.2906 102.966 62.4466 103.008 62.6125C103.049 62.7785 103.058 62.9511 103.032 63.1202C103.006 63.2894 102.946 63.4517 102.856 63.5976C102.767 63.7436 102.649 63.8703 102.509 63.9704Z" fill="#FF8B7B"/>
<path d="M99.609 25.0996C99.7801 25.9247 100.539 28.6812 104.279 28.8366C102.989 29.2547 102.684 31.7004 102.684 31.7004C102.684 31.7004 98.8357 29.288 98.4601 26.2688C98.5717 25.4733 99.609 25.0996 99.609 25.0996Z" fill="white"/>
<path d="M104.952 23.6564C105.119 24.463 106.38 25.8135 106.201 28.2296C107.499 27.8337 109.138 28.9252 109.138 28.9252C108.756 27.0698 107.853 25.3599 106.536 23.9931C106.039 23.7672 105.498 23.6522 104.952 23.6564Z" fill="white"/>
</g>
</svg>
